<svg width="153" height="22" viewBox="0 0 153 22" fill="none" xmlns="http://www.w3.org/2000/svg">
              <path d="M8.97717 21.8532C13.8036 21.8532 17.5705 19.1162 17.5705 15.0255C17.5705 10.9937 13.9213 9.31626 10.2132 8.84539C8.53573 8.63939 5.18079 8.13909 5.18079 7.10906C5.18079 6.3439 6.65226 5.8436 8.68288 5.8436C11.0078 5.8436 12.6264 6.49105 12.6264 7.37393H17.2174C17.2174 3.69526 13.6859 0.840617 8.83003 0.840617C4.18019 0.840617 0.589818 3.45983 0.589818 7.37393C0.589818 11.288 4.15077 13.1715 7.56457 13.6424C10.3309 14.025 12.9796 14.4075 12.9796 15.467C12.9796 16.291 11.3021 16.8502 9.18318 16.8502C6.65226 16.8502 4.82764 16.0556 4.82764 15.055H0.236666C0.236666 18.9396 3.97419 21.8532 8.97717 21.8532ZM24.3618 16.2027V13.8484H33.8969V8.72767H24.3618V6.49105H34.8386V1.19377H19.918V21.5H34.9858V16.2027H24.3618ZM41.9217 16.2027V1.19377H37.4779V21.5H51.0742V16.2027H41.9217ZM67.4408 6.49105V1.19377H53.2559V21.5H57.6997V14.1721H66.3519V8.87482H57.6997V6.49105H67.4408ZM69.7524 21.5H74.1962V9.37512H74.8142L78.7578 17.6448H82.9956L86.9391 9.37512H87.5571V21.5H92.001V1.19377H85.4971L81.0827 9.99314H80.4647L76.0503 1.19377H69.7524V21.5ZM110.192 21.5H114.9L107.484 1.19377H101.098L93.6819 21.5H98.7437L99.8032 18.5865H109.132L110.192 21.5ZM101.775 13.2892L104.1 6.96192H104.836L107.161 13.2892H101.775ZM124.662 1.19377H116.569V21.5H124.662C130.636 21.5 135.11 17.1445 135.11 11.3469C135.11 5.54931 130.636 1.19377 124.662 1.19377ZM124.545 16.2027H121.013V6.49105H124.545C127.958 6.49105 130.519 8.58053 130.519 11.3469C130.519 14.1132 127.958 16.2027 124.545 16.2027ZM141.964 16.2027V13.8484H151.499V8.72767H141.964V6.49105H152.441V1.19377H137.52V21.5H152.588V16.2027H141.964Z" fill="#0078E7"></path>
            </svg>